<mxfile host="Electron" modified="2023-10-03T12:30:05.797Z" agent="Mozilla/5.0 (X11; Linux x86_64) AppleWebKit/537.36 (KHTML, like Gecko) draw.io/22.0.0 Chrome/114.0.5735.289 Electron/25.8.3 Safari/537.36" etag="COQCTWCVIxn_NKxs-Fmb" version="22.0.0" type="device">
  <diagram name="Page-1" id="GoaM7WxHKPPTULKIT_ow">
    <mxGraphModel dx="1687" dy="1029" grid="1" gridSize="10" guides="1" tooltips="1" connect="1" arrows="1" fold="1" page="1" pageScale="1" pageWidth="850" pageHeight="1100" math="0" shadow="0">
      <root>
        <mxCell id="0" />
        <mxCell id="1" parent="0" />
        <mxCell id="KyJ7yPEPEKxpmCWDM9sk-1" value="Anomalias" style="rounded=1;whiteSpace=wrap;html=1;" vertex="1" parent="1">
          <mxGeometry x="120" y="30" width="600" height="30" as="geometry" />
        </mxCell>
        <mxCell id="KyJ7yPEPEKxpmCWDM9sk-2" value="Operação (&lt;i&gt;Network&lt;/i&gt;)" style="rounded=1;whiteSpace=wrap;html=1;" vertex="1" parent="1">
          <mxGeometry x="120" y="80" width="120" height="40" as="geometry" />
        </mxCell>
        <mxCell id="KyJ7yPEPEKxpmCWDM9sk-3" value="Medição" style="rounded=1;whiteSpace=wrap;html=1;" vertex="1" parent="1">
          <mxGeometry x="280" y="80" width="120" height="40" as="geometry" />
        </mxCell>
        <mxCell id="KyJ7yPEPEKxpmCWDM9sk-4" value="Flash-Crowd" style="rounded=1;whiteSpace=wrap;html=1;" vertex="1" parent="1">
          <mxGeometry x="440" y="80" width="120" height="40" as="geometry" />
        </mxCell>
        <mxCell id="KyJ7yPEPEKxpmCWDM9sk-15" style="edgeStyle=orthogonalEdgeStyle;rounded=0;orthogonalLoop=1;jettySize=auto;html=1;entryX=0.5;entryY=0;entryDx=0;entryDy=0;" edge="1" parent="1" source="KyJ7yPEPEKxpmCWDM9sk-5" target="KyJ7yPEPEKxpmCWDM9sk-14">
          <mxGeometry relative="1" as="geometry">
            <Array as="points">
              <mxPoint x="660" y="140" />
              <mxPoint x="500" y="140" />
            </Array>
          </mxGeometry>
        </mxCell>
        <mxCell id="KyJ7yPEPEKxpmCWDM9sk-16" style="edgeStyle=orthogonalEdgeStyle;rounded=0;orthogonalLoop=1;jettySize=auto;html=1;entryX=0.5;entryY=0;entryDx=0;entryDy=0;" edge="1" parent="1" source="KyJ7yPEPEKxpmCWDM9sk-5" target="KyJ7yPEPEKxpmCWDM9sk-11">
          <mxGeometry relative="1" as="geometry">
            <Array as="points">
              <mxPoint x="660" y="140" />
              <mxPoint x="340" y="140" />
            </Array>
          </mxGeometry>
        </mxCell>
        <mxCell id="KyJ7yPEPEKxpmCWDM9sk-5" value="Ataques" style="rounded=1;whiteSpace=wrap;html=1;" vertex="1" parent="1">
          <mxGeometry x="600" y="80" width="120" height="40" as="geometry" />
        </mxCell>
        <mxCell id="KyJ7yPEPEKxpmCWDM9sk-6" style="edgeStyle=orthogonalEdgeStyle;rounded=0;orthogonalLoop=1;jettySize=auto;html=1;entryX=0.1;entryY=1;entryDx=0;entryDy=0;entryPerimeter=0;startArrow=classic;startFill=1;endArrow=none;endFill=0;" edge="1" parent="1" source="KyJ7yPEPEKxpmCWDM9sk-2" target="KyJ7yPEPEKxpmCWDM9sk-1">
          <mxGeometry relative="1" as="geometry" />
        </mxCell>
        <mxCell id="KyJ7yPEPEKxpmCWDM9sk-7" style="edgeStyle=orthogonalEdgeStyle;rounded=0;orthogonalLoop=1;jettySize=auto;html=1;entryX=0.366;entryY=1;entryDx=0;entryDy=0;entryPerimeter=0;startArrow=classic;startFill=1;endArrow=none;endFill=0;" edge="1" parent="1" source="KyJ7yPEPEKxpmCWDM9sk-3" target="KyJ7yPEPEKxpmCWDM9sk-1">
          <mxGeometry relative="1" as="geometry" />
        </mxCell>
        <mxCell id="KyJ7yPEPEKxpmCWDM9sk-8" style="edgeStyle=orthogonalEdgeStyle;rounded=0;orthogonalLoop=1;jettySize=auto;html=1;entryX=0.632;entryY=1.029;entryDx=0;entryDy=0;entryPerimeter=0;endArrow=none;endFill=0;startArrow=classic;startFill=1;" edge="1" parent="1" source="KyJ7yPEPEKxpmCWDM9sk-4" target="KyJ7yPEPEKxpmCWDM9sk-1">
          <mxGeometry relative="1" as="geometry" />
        </mxCell>
        <mxCell id="KyJ7yPEPEKxpmCWDM9sk-10" style="edgeStyle=orthogonalEdgeStyle;rounded=0;orthogonalLoop=1;jettySize=auto;html=1;entryX=0.899;entryY=1.029;entryDx=0;entryDy=0;entryPerimeter=0;endArrow=none;endFill=0;startArrow=classic;startFill=1;" edge="1" parent="1" source="KyJ7yPEPEKxpmCWDM9sk-5" target="KyJ7yPEPEKxpmCWDM9sk-1">
          <mxGeometry relative="1" as="geometry" />
        </mxCell>
        <mxCell id="KyJ7yPEPEKxpmCWDM9sk-20" style="edgeStyle=orthogonalEdgeStyle;rounded=0;orthogonalLoop=1;jettySize=auto;html=1;entryX=1;entryY=0.5;entryDx=0;entryDy=0;" edge="1" parent="1" source="KyJ7yPEPEKxpmCWDM9sk-11" target="KyJ7yPEPEKxpmCWDM9sk-17">
          <mxGeometry relative="1" as="geometry">
            <Array as="points">
              <mxPoint x="340" y="240" />
            </Array>
          </mxGeometry>
        </mxCell>
        <mxCell id="KyJ7yPEPEKxpmCWDM9sk-21" style="edgeStyle=orthogonalEdgeStyle;rounded=0;orthogonalLoop=1;jettySize=auto;html=1;entryX=1;entryY=0.5;entryDx=0;entryDy=0;" edge="1" parent="1" source="KyJ7yPEPEKxpmCWDM9sk-11" target="KyJ7yPEPEKxpmCWDM9sk-18">
          <mxGeometry relative="1" as="geometry">
            <Array as="points">
              <mxPoint x="340" y="300" />
            </Array>
          </mxGeometry>
        </mxCell>
        <mxCell id="KyJ7yPEPEKxpmCWDM9sk-24" style="edgeStyle=orthogonalEdgeStyle;rounded=0;orthogonalLoop=1;jettySize=auto;html=1;entryX=1;entryY=0.5;entryDx=0;entryDy=0;" edge="1" parent="1" source="KyJ7yPEPEKxpmCWDM9sk-11" target="KyJ7yPEPEKxpmCWDM9sk-23">
          <mxGeometry relative="1" as="geometry">
            <Array as="points">
              <mxPoint x="340" y="360" />
            </Array>
          </mxGeometry>
        </mxCell>
        <mxCell id="KyJ7yPEPEKxpmCWDM9sk-11" value="Passivo" style="rounded=1;whiteSpace=wrap;html=1;" vertex="1" parent="1">
          <mxGeometry x="280" y="160" width="120" height="40" as="geometry" />
        </mxCell>
        <mxCell id="KyJ7yPEPEKxpmCWDM9sk-28" style="edgeStyle=orthogonalEdgeStyle;rounded=0;orthogonalLoop=1;jettySize=auto;html=1;entryX=0;entryY=0.5;entryDx=0;entryDy=0;" edge="1" parent="1" source="KyJ7yPEPEKxpmCWDM9sk-14" target="KyJ7yPEPEKxpmCWDM9sk-25">
          <mxGeometry relative="1" as="geometry">
            <Array as="points">
              <mxPoint x="500" y="240" />
            </Array>
          </mxGeometry>
        </mxCell>
        <mxCell id="KyJ7yPEPEKxpmCWDM9sk-29" style="edgeStyle=orthogonalEdgeStyle;rounded=0;orthogonalLoop=1;jettySize=auto;html=1;entryX=0;entryY=0.5;entryDx=0;entryDy=0;" edge="1" parent="1" source="KyJ7yPEPEKxpmCWDM9sk-14" target="KyJ7yPEPEKxpmCWDM9sk-26">
          <mxGeometry relative="1" as="geometry">
            <Array as="points">
              <mxPoint x="500" y="300" />
            </Array>
          </mxGeometry>
        </mxCell>
        <mxCell id="KyJ7yPEPEKxpmCWDM9sk-30" style="edgeStyle=orthogonalEdgeStyle;rounded=0;orthogonalLoop=1;jettySize=auto;html=1;entryX=0;entryY=0.5;entryDx=0;entryDy=0;" edge="1" parent="1" source="KyJ7yPEPEKxpmCWDM9sk-14" target="KyJ7yPEPEKxpmCWDM9sk-27">
          <mxGeometry relative="1" as="geometry">
            <Array as="points">
              <mxPoint x="500" y="360" />
            </Array>
          </mxGeometry>
        </mxCell>
        <mxCell id="KyJ7yPEPEKxpmCWDM9sk-14" value="Ativo" style="rounded=1;whiteSpace=wrap;html=1;" vertex="1" parent="1">
          <mxGeometry x="440" y="160" width="120" height="40" as="geometry" />
        </mxCell>
        <mxCell id="KyJ7yPEPEKxpmCWDM9sk-17" value="&lt;i&gt;Scanning&lt;/i&gt;" style="rounded=1;whiteSpace=wrap;html=1;" vertex="1" parent="1">
          <mxGeometry x="120" y="220" width="120" height="40" as="geometry" />
        </mxCell>
        <mxCell id="KyJ7yPEPEKxpmCWDM9sk-18" value="&lt;div&gt;&lt;i&gt;Packet Sniffing&lt;/i&gt;&lt;/div&gt;" style="rounded=1;whiteSpace=wrap;html=1;" vertex="1" parent="1">
          <mxGeometry x="120" y="280" width="120" height="40" as="geometry" />
        </mxCell>
        <mxCell id="KyJ7yPEPEKxpmCWDM9sk-23" value="&lt;div&gt;...&lt;/div&gt;" style="rounded=1;whiteSpace=wrap;html=1;" vertex="1" parent="1">
          <mxGeometry x="120" y="340" width="120" height="40" as="geometry" />
        </mxCell>
        <mxCell id="KyJ7yPEPEKxpmCWDM9sk-25" value="&lt;i&gt;Denial of Service&lt;/i&gt; (DoS)" style="rounded=1;whiteSpace=wrap;html=1;" vertex="1" parent="1">
          <mxGeometry x="600" y="220" width="120" height="40" as="geometry" />
        </mxCell>
        <mxCell id="KyJ7yPEPEKxpmCWDM9sk-26" value="&lt;div&gt;&lt;i&gt;Man-In-The-Middle (MITM)&lt;/i&gt;&lt;/div&gt;" style="rounded=1;whiteSpace=wrap;html=1;" vertex="1" parent="1">
          <mxGeometry x="600" y="280" width="120" height="40" as="geometry" />
        </mxCell>
        <mxCell id="KyJ7yPEPEKxpmCWDM9sk-27" value="&lt;div&gt;...&lt;/div&gt;" style="rounded=1;whiteSpace=wrap;html=1;" vertex="1" parent="1">
          <mxGeometry x="600" y="340" width="120" height="40" as="geometry" />
        </mxCell>
      </root>
    </mxGraphModel>
  </diagram>
</mxfile>
